<svg width="1040" height="1040" viewBox="0 0 1040 1040" fill="none" xmlns="http://www.w3.org/2000/svg">
<path d="M520 2C806.084 2 1038 233.916 1038 520C1038 806.084 806.084 1038 520 1038C233.916 1038 2 806.084 2 520C2 233.916 233.916 2 520 2ZM520 45.3145C257.839 45.3145 45.3145 257.839 45.3145 520C45.3145 782.161 257.839 994.686 520 994.686C782.161 994.686 994.686 782.161 994.686 520C994.686 257.839 782.161 45.3145 520 45.3145Z" fill="white" stroke="white" stroke-width="4"/>
<path fill-rule="evenodd" clip-rule="evenodd" d="M702.648 513.359L520.45 340.673L338.749 513.372L520.451 692.23L702.648 513.359ZM637.664 512.725L519.163 400.41L400.984 512.734L519.163 629.064L637.664 512.725Z" fill="white"/>
<path d="M520.45 340.673L521.138 339.948L520.449 339.295L519.761 339.949L520.45 340.673ZM702.648 513.359L703.348 514.072L704.088 513.346L703.336 512.633L702.648 513.359ZM338.749 513.372L338.06 512.647L337.311 513.359L338.048 514.085L338.749 513.372ZM520.451 692.23L519.749 692.943L520.45 693.633L521.151 692.944L520.451 692.23ZM519.163 400.41L519.851 399.685L519.162 399.032L518.474 399.686L519.163 400.41ZM637.664 512.725L638.365 513.439L639.104 512.712L638.352 511.999L637.664 512.725ZM400.984 512.734L400.295 512.009L399.546 512.721L400.282 513.446L400.984 512.734ZM519.163 629.064L518.461 629.776L519.162 630.466L519.863 629.777L519.163 629.064ZM519.762 341.399L701.96 514.084L703.336 512.633L521.138 339.948L519.762 341.399ZM339.438 514.097L521.139 341.398L519.761 339.949L338.06 512.647L339.438 514.097ZM521.152 691.518L339.451 512.659L338.048 514.085L519.749 692.943L521.152 691.518ZM701.947 512.645L519.75 691.517L521.151 692.944L703.348 514.072L701.947 512.645ZM518.475 401.136L636.976 513.451L638.352 511.999L519.851 399.685L518.475 401.136ZM401.673 513.459L519.852 401.135L518.474 399.686L400.295 512.009L401.673 513.459ZM519.864 628.351L401.685 512.021L400.282 513.446L518.461 629.776L519.864 628.351ZM636.964 512.012L518.462 628.35L519.863 629.777L638.365 513.439L636.964 512.012Z" fill="white"/>
<path d="M521.989 558.263L478.762 515.713L521.99 474.628L565.334 515.71L521.989 558.263Z" fill="white" stroke="white" stroke-width="3"/>
<path d="M144 520.124L515.883 170L896 520.124L515.883 878L212.613 592.474L246.234 560.821L515.883 814.693L828.759 520.124L515.883 225.555L173.504 547.901L144 520.124Z" fill="white" stroke="white" stroke-width="2.8"/>
</svg>
